<?xml version="1.0" encoding="iso-8859-1"?>
<!-- Generator: Adobe Illustrator 23.0.1, SVG Export Plug-In . SVG Version: 6.00 Build 0)  -->
<svg version="1.1" id="Layer_1" xmlns="http://www.w3.org/2000/svg" xmlns:xlink="http://www.w3.org/1999/xlink" x="0px" y="0px"
	 width="20px" height="20px" viewBox="0 0 20 20" style="enable-background:new 0 0 20 20;" xml:space="preserve">
<g>
	<path style="fill:#454545;" d="M18.208,4.643H1.792c-0.331,0-0.601,0.27-0.601,0.601v9.512c0,0.331,0.27,0.601,0.601,0.601h16.415
		c0.331,0,0.601-0.27,0.601-0.601V5.244C18.809,4.913,18.539,4.643,18.208,4.643L18.208,4.643z M2.225,6.124l4.938,3.282
		l-4.938,4.298V6.124z M10,10.051L3.419,5.676h13.162L10,10.051z M8.055,9.998l1.612,1.072c0.101,0.067,0.217,0.101,0.333,0.101
		c0.116,0,0.232-0.034,0.333-0.101l1.612-1.072l4.968,4.325H3.086L8.055,9.998z M12.837,9.405l4.938-3.282v7.58L12.837,9.405z
		 M12.837,9.405"/>
</g>
</svg>
