<svg width="21" height="21" viewBox="0 0 21 21" fill="none" xmlns="http://www.w3.org/2000/svg">
<ellipse cx="10.3633" cy="6.49994" rx="4.5" ry="4" fill="#D1F0FF"/>
<path fill-rule="evenodd" clip-rule="evenodd" d="M10.4999 1.2251C7.69707 1.2251 5.42492 3.49725 5.42492 6.30008C5.42492 8.6141 6.97365 10.5664 9.09113 11.177C7.41949 11.3807 5.98572 11.9719 4.90562 13.0364C3.53095 14.3912 2.83496 16.408 2.83496 19.0399C2.83496 19.4072 3.1327 19.7049 3.49996 19.7049C3.86723 19.7049 4.16496 19.4072 4.16496 19.0399C4.16496 16.6319 4.79893 15.0089 5.83919 13.9837C6.88142 12.9565 8.43735 12.425 10.4998 12.425C12.5623 12.425 14.1183 12.9565 15.1606 13.9837C16.2008 15.0089 16.8349 16.6319 16.8349 19.0399C16.8349 19.4072 17.1325 19.7049 17.4999 19.7049C17.8671 19.705 18.1649 19.4072 18.1649 19.04C18.1649 16.408 17.4688 14.3912 16.0941 13.0364C15.014 11.9719 13.5802 11.3807 11.9086 11.177C14.0261 10.5664 15.5749 8.61411 15.5749 6.30008C15.5749 3.49725 13.3027 1.2251 10.4999 1.2251ZM6.75492 6.30008C6.75492 4.23178 8.43161 2.55509 10.4999 2.55509C12.5682 2.55509 14.2449 4.23178 14.2449 6.30008C14.2449 8.36837 12.5682 10.0451 10.4999 10.0451C8.43161 10.0451 6.75492 8.36837 6.75492 6.30008Z" fill="#7295BB"/>
</svg>
