<svg width="24" height="24" viewBox="0 0 24 24" fill="none" xmlns="http://www.w3.org/2000/svg">
<rect width="16" height="14" transform="translate(4 7)" fill="#D1F0FF"/>
<path d="M4.5 22C4.0875 22 3.73441 21.8531 3.44075 21.5592C3.14691 21.2656 3 20.9125 3 20.5V7.25C3 6.8375 3.14691 6.48435 3.44075 6.1905C3.73441 5.89685 4.0875 5.75 4.5 5.75H7.25C7.25 4.45 7.69585 3.33334 8.5875 2.4C9.47915 1.46667 10.575 1 11.875 1C13.2236 1 14.3734 1.45833 15.324 2.375C16.2747 3.29167 16.75 4.41667 16.75 5.75H19.5C19.9125 5.75 20.2656 5.89685 20.5595 6.1905C20.8531 6.48435 21 6.8375 21 7.25V20.5C21 20.9125 20.8531 21.2656 20.5595 21.5592C20.2656 21.8531 19.9125 22 19.5 22H4.5ZM4.5 20.5H19.5V7.25H4.5V20.5ZM12 13.25C13.3167 13.25 14.4584 12.7667 15.425 11.8C16.3917 10.8334 16.875 9.69165 16.875 8.375H15.375C15.375 9.29165 15.0416 10.0834 14.375 10.75C13.7084 11.4166 12.9166 11.75 12 11.75C11.0834 11.75 10.2916 11.4166 9.625 10.75C8.95835 10.0834 8.625 9.29165 8.625 8.375H7.125C7.125 9.69165 7.60835 10.8334 8.575 11.8C9.54165 12.7667 10.6834 13.25 12 13.25ZM8.75 5.75H15.25C15.25 4.83333 14.9375 4.0625 14.3125 3.4375C13.6875 2.8125 12.9166 2.5 12 2.5C11.0834 2.5 10.3125 2.8125 9.6875 3.4375C9.0625 4.0625 8.75 4.83333 8.75 5.75Z" fill="#7295BB"/>
</svg>
