<svg width="18" height="16" viewBox="0 0 18 16" fill="none" xmlns="http://www.w3.org/2000/svg">
<rect width="16" height="16" fill="white"/>
<path d="M16.6742 6.59998V11.2C16.6742 11.3525 16.6136 11.4988 16.5058 11.6066C16.398 11.7144 16.2517 11.775 16.0992 11.775H14.3742C14.3742 11.3175 14.1924 10.8787 13.869 10.5552C13.5455 10.2317 13.1067 10.05 12.6492 10.05C12.1917 10.05 11.7529 10.2317 11.4294 10.5552C11.106 10.8787 10.9242 11.3175 10.9242 11.775H6.32422C6.32422 11.3175 6.14245 10.8787 5.81898 10.5552C5.49548 10.2317 5.05672 10.05 4.59922 10.05C4.14172 10.05 3.70296 10.2317 3.37946 10.5552C3.05596 10.8787 2.87422 11.3175 2.87422 11.775H1.14922C0.996722 11.775 0.850463 11.7144 0.742629 11.6066C0.634802 11.4988 0.574219 11.3525 0.574219 11.2V8.32498H12.0742V6.59998H16.6742Z" fill="#D1F0FF"/>
<path d="M17.2083 6.38438L16.2021 3.86875C16.1167 3.65591 15.9694 3.4736 15.7792 3.34545C15.589 3.2173 15.3648 3.14921 15.1354 3.15H12.65V2.575C12.65 2.4225 12.5894 2.27624 12.4816 2.16841C12.3738 2.06058 12.2275 2 12.075 2H1.15C0.844998 2 0.552496 2.12116 0.336828 2.33683C0.12116 2.5525 0 2.845 0 3.15V11.2C0 11.505 0.12116 11.7975 0.336828 12.0132C0.552496 12.2288 0.844998 12.35 1.15 12.35H2.37188C2.49855 12.8447 2.78628 13.2832 3.1897 13.5964C3.59313 13.9095 4.0893 14.0795 4.6 14.0795C5.1107 14.0795 5.60687 13.9095 6.01029 13.5964C6.41369 13.2832 6.70148 12.8447 6.82812 12.35H10.4219C10.5485 12.8447 10.8363 13.2832 11.2397 13.5964C11.6431 13.9095 12.1393 14.0795 12.65 14.0795C13.1607 14.0795 13.6569 13.9095 14.0603 13.5964C14.4637 13.2832 14.7515 12.8447 14.8781 12.35H16.1C16.405 12.35 16.6975 12.2288 16.9132 12.0132C17.1288 11.7975 17.25 11.505 17.25 11.2V6.6C17.2502 6.52611 17.2361 6.45287 17.2083 6.38438ZM12.65 4.3H15.1354L15.8254 6.025H12.65V4.3ZM1.15 3.15H11.5V7.75H1.15V3.15ZM4.6 12.925C4.37255 12.925 4.15021 12.8576 3.9611 12.7312C3.77198 12.6048 3.62458 12.4253 3.53754 12.2151C3.4505 12.0049 3.42773 11.7737 3.47209 11.5507C3.51647 11.3276 3.626 11.1227 3.78683 10.9618C3.94766 10.801 4.15257 10.6915 4.37565 10.6471C4.59873 10.6027 4.82995 10.6255 5.04008 10.7125C5.25022 10.7996 5.42983 10.947 5.55619 11.1361C5.68255 11.3252 5.75 11.5475 5.75 11.775C5.75 12.08 5.62884 12.3725 5.41317 12.5882C5.1975 12.8038 4.905 12.925 4.6 12.925ZM10.4219 11.2H6.82812C6.70148 10.7053 6.41369 10.2668 6.01029 9.95362C5.60687 9.64046 5.1107 9.47047 4.6 9.47047C4.0893 9.47047 3.59313 9.64046 3.1897 9.95362C2.78628 10.2668 2.49855 10.7053 2.37188 11.2H1.15V8.9H11.5V9.78478C11.2356 9.93759 11.0041 10.1414 10.8191 10.3844C10.634 10.6272 10.499 10.9045 10.4219 11.2ZM12.65 12.925C12.4225 12.925 12.2002 12.8576 12.0111 12.7312C11.822 12.6048 11.6746 12.4253 11.5875 12.2151C11.5005 12.0049 11.4777 11.7737 11.5221 11.5507C11.5665 11.3276 11.676 11.1227 11.8368 10.9618C11.9977 10.801 12.2026 10.6915 12.4257 10.6471C12.6487 10.6027 12.8799 10.6255 13.0901 10.7125C13.3003 10.7996 13.4798 10.947 13.6062 11.1361C13.7326 11.3252 13.8 11.5475 13.8 11.775C13.8 12.08 13.6788 12.3725 13.4632 12.5882C13.2475 12.8038 12.955 12.925 12.65 12.925ZM16.1 11.2H14.8781C14.7499 10.7064 14.4617 10.2694 14.0585 9.95721C13.6552 9.64506 13.1599 9.4755 12.65 9.475V7.175H16.1V11.2Z" fill="#7295BB"/>
</svg>
